# xmcd
# 
# Track frame offsets:
#     182
#     31477
#     54072
#     78340
#     92017
#     116030
#     134192
#     162142
#     179075
#     205657
#     222740
#     246752
# 
# Disc length: 3596
# 
# Revision: 5
# Processed by: cddbd v1.5.2PL0 Copyright (c) Steve Scherf et al.
# Submitted via: BonkEnc v1.0.5
# 
DISCID=ac0e0a0c
DTITLE=The Eagles - Selected Works 1972 to 1999, Disc 4 The Millenium Concert
DYEAR=2000
DGENRE=Rock
TTITLE0=Hotel California
TTITLE1=Victim Of Love
TTITLE2=Peaceful Easy Feeling
TTITLE3=Please Come Home For Christmas
TTITLE4=Ol' 55
TTITLE5=Take It To The Limit
TTITLE6=Those Shoes
TTITLE7=Funky New Year
TTITLE8=Dirty Laundry
TTITLE9=Funk 49
TTITLE10=All She Wants To Do Is Dance
TTITLE11=The Best Of My Love
EXTD=YEAR: 2000 ID3G:  17
EXTT0=
EXTT1=
EXTT2=
EXTT3=
EXTT4=
EXTT5=
EXTT6=
EXTT7=
EXTT8=
EXTT9=
EXTT10=
EXTT11=
PLAYORDER=
